# xmcd
#
# Track frame offsets: 
#        150
#        17300
#        34856
#        56003
#        74583
#        94272
#        112692
#        131057
#        149126
#        165007
#        180970
#        196798
#        213625
#        230938
#        245972
#        266943
#
# Disc length: 3752 seconds
#
# Revision: 0
# Processed by: cddbd v1.5.1PL2 Copyright (c) Steve Scherf et al.
# Submitted via: ExactAudioCopy v0.95a5
#
DISCID=ed0ea610
DTITLE=Lюк and bonus - Lemon
DYEAR=2004
DGENRE=Jazz
TTITLE0=Спрага
TTITLE1=L5
TTITLE2=A couse De Toi
TTITLE3=Никотин
TTITLE4=Дядя
TTITLE5=Homme Impossible
TTITLE6=Lemon
TTITLE7=Солнце
TTITLE8=Парапланы
TTITLE9=Португальцы
TTITLE10=Electro 1: Kolyskova
TTITLE11=Штурман Басов
TTITLE12=Бо
TTITLE13=Electro 2: Океан. Один раз
TTITLE14=Без билета - Две лодочки
TTITLE15=Без билета - Шла дальше
EXTD=
EXTT0=
EXTT1=
EXTT2=
EXTT3=
EXTT4=
EXTT5=
EXTT6=
EXTT7=
EXTT8=
EXTT9=
EXTT10=
EXTT11=
EXTT12=
EXTT13=
EXTT14=
EXTT15=
PLAYORDER=
